<svg width="147.6" height="20" version="1.1" viewBox="0 0 39.05 5.292" xmlns="http://www.w3.org/2000/svg">
  <g transform="translate(-59.07 -78.57)">
    <rect x="59.07" y="78.57" width="5.292" height="5.292" fill="#fff" stroke-linecap="round" stroke-width=".2646"/>
    <path d="m59.07 78.57v5.292h0.7461v-4.485h1.721c0.5994 0 1.033 0.1626 1.302 0.488 0.274 0.3254 0.411 0.802 0.411 1.43 0 0.5652-0.1457 1.005-0.4368 1.319-0.2911 0.314-0.7135 0.4711-1.267 0.4711h-0.7621v0.7772h3.578v-5.292zm1.714 1.5v2.321h0.4452c0.2854 0 0.5052-0.03151 0.6594-0.09431 0.1598-0.0628 0.274-0.1713 0.3425-0.3254 0.0685-0.1541 0.1027-0.3768 0.1027-0.6679 0-0.3539-0.02565-0.6136-0.07703-0.7792-0.05138-0.1656-0.1542-0.2826-0.3083-0.3511-0.1484-0.0685-0.3853-0.1027-0.7107-0.1027z" fill="#4d4d4d"/>
    <rect x="64.89" y="78.57" width="33.23" height="5.292" fill="#4d4d4d" stroke-linecap="round" stroke-width=".2646"/>
    <g fill="#fff" stroke-width=".2646px" style="text-orientation:upright" aria-label="Dr. Pogodin Studio">
      <path d="m67.6 79.53h0.7451q0.5546 0 0.7832 0.254 0.2328 0.254 0.2328 0.7916v1.262q0 0.5673-0.2286 0.8467-0.2244 0.2752-0.7493 0.2752h-0.7832zm0.7493 3.086q0.2498 0 0.3598-0.09737 0.1143-0.09737 0.1397-0.2625 0.02963-0.1693 0.02963-0.508v-1.113q0-0.2921-0.0381-0.4445-0.03387-0.1566-0.1482-0.2286-0.1143-0.0762-0.3556-0.0762h-0.2582v2.73z"/>
      <path d="m69.81 80.52h0.453v0.3471q0.127-0.2074 0.2582-0.2921 0.1355-0.08467 0.2836-0.08467 0.0381 0 0.07197 0.0042v0.4995q-0.1355-0.0508-0.2498-0.0508-0.1101 0-0.199 0.05503-0.08467 0.0508-0.1651 0.182v1.786h-0.453z"/>
      <path d="m71.13 82.46h0.453v0.5038h-0.453z"/>
      <path d="m72.95 79.53h0.8509q0.4445 0 0.6435 0.2413 0.2032 0.2413 0.2032 0.707 0 0.4191-0.2159 0.6519-0.2159 0.2328-0.6265 0.2328h-0.3768v1.596h-0.4784zm0.6985 1.49q0.2117 0 0.326-0.04657 0.1185-0.04657 0.1693-0.1609 0.0508-0.1143 0.0508-0.3302 0-0.2625-0.0381-0.3852-0.0381-0.1228-0.1524-0.1736-0.1101-0.0508-0.3514-0.0508h-0.2244v1.147z"/>
      <path d="m75.6 83q-0.3895 0-0.5546-0.2286-0.1609-0.2328-0.1609-0.6731v-0.7112q0-0.4403 0.1609-0.6689 0.1651-0.2328 0.5546-0.2328 0.3852 0 0.5461 0.2328 0.1651 0.2286 0.1651 0.6689v0.7112q0 0.4403-0.1651 0.6731-0.1609 0.2286-0.5461 0.2286zm0-0.3344q0.1228 0 0.1778-0.07197 0.05503-0.07197 0.06773-0.1778 0.0127-0.1058 0.0127-0.2879v-0.7662q0-0.182-0.0127-0.2879-0.0127-0.1101-0.06773-0.182-0.05503-0.07197-0.1778-0.07197-0.1228 0-0.182 0.07197-0.05503 0.07197-0.06773 0.182-0.0127 0.1058-0.0127 0.2879v0.7662q0 0.182 0.0127 0.2879 0.0127 0.1058 0.06773 0.1778 0.05927 0.07197 0.182 0.07197z"/>
      <path d="m77.36 83.72q-0.3556 0-0.5673-0.1143-0.2117-0.1101-0.2117-0.3471 0-0.1609 0.09737-0.2794 0.1016-0.1185 0.254-0.1905-0.1143-0.03387-0.1778-0.1058-0.05927-0.07197-0.05927-0.1566 0-0.127 0.0635-0.2201 0.0635-0.09313 0.2074-0.2244-0.1439-0.1101-0.2159-0.2752-0.06773-0.1693-0.06773-0.453 0-0.4276 0.1736-0.6477 0.1778-0.2244 0.5165-0.2244 0.1947 0 0.3175 0.06773 0.1228 0.06773 0.1863 0.2032 0.02963-0.04657 0.1228-0.1228 0.09737-0.08043 0.2074-0.1312l0.06773-0.02963 0.1143 0.2921q-0.08467 0.01693-0.2371 0.07197-0.1482 0.05503-0.1778 0.08467 0.02963 0.0762 0.0508 0.2117 0.0254 0.1355 0.0254 0.2371 0 0.4022-0.1566 0.6265-0.1566 0.2201-0.5207 0.2201-0.1143 0-0.2328-0.02963-0.08043 0.1185-0.08043 0.1863 0 0.04657 0.04657 0.0762 0.0508 0.0254 0.1566 0.03387l0.381 0.03387q0.2879 0.0254 0.4276 0.1736 0.1397 0.1482 0.1397 0.4233 0 0.6096-0.8509 0.6096zm0.0127-1.825q0.182 0 0.2371-0.127 0.05503-0.127 0.05503-0.4149 0-0.2921-0.05503-0.4233-0.05503-0.1355-0.2328-0.1355-0.1778 0-0.2413 0.1355-0.05927 0.1312-0.05927 0.4233 0 0.2625 0.05927 0.4022 0.0635 0.1397 0.2371 0.1397zm0.02117 1.469q0.2413 0 0.3556-0.05927 0.1143-0.05503 0.1143-0.182 0-0.1185-0.07197-0.1736-0.07197-0.05927-0.2625-0.0762l-0.3852-0.03387q-0.0889 0.0889-0.1355 0.1566-0.04657 0.06773-0.04657 0.1482 0 0.1143 0.09313 0.1651 0.09737 0.05503 0.3387 0.05503z"/>
      <path d="m79.22 83q-0.3895 0-0.5546-0.2286-0.1609-0.2328-0.1609-0.6731v-0.7112q0-0.4403 0.1609-0.6689 0.1651-0.2328 0.5546-0.2328 0.3852 0 0.5461 0.2328 0.1651 0.2286 0.1651 0.6689v0.7112q0 0.4403-0.1651 0.6731-0.1609 0.2286-0.5461 0.2286zm0-0.3344q0.1228 0 0.1778-0.07197 0.05503-0.07197 0.06773-0.1778 0.0127-0.1058 0.0127-0.2879v-0.7662q0-0.182-0.0127-0.2879-0.0127-0.1101-0.06773-0.182-0.05503-0.07197-0.1778-0.07197-0.1228 0-0.182 0.07197-0.05503 0.07197-0.06773 0.182-0.0127 0.1058-0.0127 0.2879v0.7662q0 0.182 0.0127 0.2879 0.0127 0.1058 0.06773 0.1778 0.05927 0.07197 0.182 0.07197z"/>
      <path d="m80.91 83q-0.3175 0-0.4657-0.2286-0.1482-0.2328-0.1482-0.7662v-0.4741q0-0.4868 0.127-0.7662 0.1312-0.2794 0.4741-0.2794 0.2159 0 0.4064 0.1905v-1.139h0.453v3.429h-0.453v-0.1566q-0.1778 0.1905-0.3937 0.1905zm0.1143-0.3556q0.1355 0 0.2794-0.09313v-1.604q-0.1566-0.1058-0.2879-0.1058-0.2667 0-0.2667 0.5122v0.69q0 0.2963 0.05503 0.4487t0.2201 0.1524z"/>
      <path d="m82.25 79.68h0.453v0.4741h-0.453zm0 0.8382h0.453v2.447h-0.453z"/>
      <path d="m83.19 80.52h0.453v0.2413q0.2921-0.2752 0.5969-0.2752 0.199 0 0.2836 0.1439 0.08467 0.1439 0.08467 0.3556v1.981h-0.453v-1.85q0-0.1397-0.04233-0.2074-0.04233-0.06773-0.1524-0.06773-0.1355 0-0.3175 0.1524v1.973h-0.453z"/>
      <path d="m86.86 83q-0.4318 0-0.6604-0.2667-0.2244-0.2667-0.2498-0.7324l0.4233-0.1143q0.02117 0.3302 0.127 0.5334 0.1101 0.2032 0.3598 0.2032 0.1863 0 0.2794-0.1016 0.09737-0.1058 0.09737-0.3006 0-0.2117-0.0889-0.3514t-0.2836-0.309l-0.5757-0.508q-0.1736-0.1524-0.254-0.326-0.0762-0.1778-0.0762-0.4318 0-0.3768 0.2159-0.5842t0.5884-0.2074q0.4064 0 0.6138 0.2159 0.2074 0.2159 0.2498 0.6689l-0.4064 0.1101q-0.02117-0.3006-0.1185-0.4614-0.09313-0.1651-0.3387-0.1651-0.182 0-0.2794 0.09737-0.09737 0.09313-0.09737 0.2794 0 0.1524 0.0508 0.2582 0.0508 0.1016 0.1736 0.2074l0.58 0.508q0.2244 0.199 0.3556 0.4318 0.1355 0.2328 0.1355 0.5292 0 0.3768-0.2286 0.5969-0.2286 0.2201-0.5927 0.2201z"/>
      <path d="m88.67 83q-0.5292 0-0.5292-0.5842v-1.596h-0.2582v-0.3006h0.2582v-0.7154h0.453v0.7154h0.3937v0.3006h-0.3937v1.566q0 0.1482 0.04657 0.2074 0.04657 0.05927 0.1778 0.05927 0.08467 0 0.1651-0.0127v0.3344q-0.1693 0.0254-0.3133 0.0254z"/>
      <path d="m89.67 83q-0.199 0-0.2836-0.1439-0.08467-0.1439-0.08467-0.3556v-1.981h0.453v1.846q0 0.1397 0.04233 0.2117 0.04233 0.06773 0.1524 0.06773 0.1355 0 0.3175-0.1524v-1.973h0.453v2.447h-0.453v-0.2413q-0.2921 0.2752-0.5969 0.2752z"/>
      <path d="m91.75 83q-0.3175 0-0.4657-0.2286-0.1482-0.2328-0.1482-0.7662v-0.4741q0-0.4868 0.127-0.7662 0.1312-0.2794 0.4741-0.2794 0.2159 0 0.4064 0.1905v-1.139h0.453v3.429h-0.453v-0.1566q-0.1778 0.1905-0.3937 0.1905zm0.1143-0.3556q0.1355 0 0.2794-0.09313v-1.604q-0.1566-0.1058-0.2879-0.1058-0.2667 0-0.2667 0.5122v0.69q0 0.2963 0.05503 0.4487t0.2201 0.1524z"/>
      <path d="m93.08 79.68h0.453v0.4741h-0.453zm0 0.8382h0.453v2.447h-0.453z"/>
      <path d="m94.7 83q-0.3895 0-0.5546-0.2286-0.1609-0.2328-0.1609-0.6731v-0.7112q0-0.4403 0.1609-0.6689 0.1651-0.2328 0.5546-0.2328 0.3852 0 0.5461 0.2328 0.1651 0.2286 0.1651 0.6689v0.7112q0 0.4403-0.1651 0.6731-0.1609 0.2286-0.5461 0.2286zm0-0.3344q0.1228 0 0.1778-0.07197 0.05503-0.07197 0.06773-0.1778 0.0127-0.1058 0.0127-0.2879v-0.7662q0-0.182-0.0127-0.2879-0.0127-0.1101-0.06773-0.182-0.05503-0.07197-0.1778-0.07197-0.1228 0-0.182 0.07197-0.05503 0.07197-0.06773 0.182-0.0127 0.1058-0.0127 0.2879v0.7662q0 0.182 0.0127 0.2879 0.0127 0.1058 0.06773 0.1778 0.05927 0.07197 0.182 0.07197z"/>
    </g>
  </g>
</svg>
